<svg width="60" height="35" viewBox="0 0 60 35" fill="none">
<path d="M48.7829 6.0056C45.616 -1.61716 38.9846 -0.702113 35.0167 1.79191C34.7595 1.9532 34.4732 2.12261 34.1383 2.28641C33.7994 2.48327 34.1706 2.48608 34.2786 2.4633C36.5186 1.99127 38.9214 1.16575 40.493 1.22253C47.0883 1.46089 47.1859 7.62574 46.5765 11.1125C45.676 16.2715 37.9848 23.1783 37.9848 23.1783C37.9848 23.1783 37.198 20.0584 32.3834 18.2717C27.5347 16.4718 17.1868 20.3261 12.0755 17.9784C7.19853 15.7383 13.3315 8.79475 16.1336 7.52341C18.2786 6.52911 17.1801 6.71973 16.7401 6.88758C16.3001 7.05543 5.38226 10.8991 7.61637 17.5491C8.93821 21.4839 13.7146 20.966 22.4347 19.2207C31.1197 17.482 34.5052 19.8185 35.4631 20.5988C36.6576 21.5712 37.3423 23.6631 37.3423 23.6631C37.3423 23.6631 32.519 27.9432 31.2721 29.1684C30.0252 30.3936 27.8263 34.1018 30.1544 34.7551C32.4824 35.4084 40.5887 32.9325 38.2604 24.0032L43.2866 19.836C43.2866 19.836 51.9477 13.6274 48.7813 6.00591L48.7829 6.0056ZM36.6576 30.4641C35.1368 32.8829 33.1284 32.6701 32.7028 30.5355C32.2772 28.4009 37.6083 24.4615 37.6083 24.4615C37.6083 24.4615 38.1791 28.0453 36.6579 30.4641" fill="#F5F3EA"/>
<path d="M0.400692 30.714V33.0751C0.402301 33.0884 0.401232 33.102 0.397573 33.1148C0.393914 33.1275 0.387765 33.1391 0.37961 33.1486C0.371455 33.1581 0.361519 33.1653 0.350589 33.1695C0.33966 33.1738 0.328038 33.175 0.316642 33.173H0.0845076C0.0731316 33.1749 0.0615362 33.1737 0.0506418 33.1694C0.0397474 33.1651 0.0298499 33.158 0.0217267 33.1485C0.0136035 33.139 0.00747778 33.1274 0.00383296 33.1147C0.000188137 33.1019 -0.000877135 33.0884 0.000722415 33.0751V27.976C0.000722415 27.9156 0.0286527 27.8855 0.0845076 27.8855H2.45203C2.50361 27.8855 2.5294 27.9132 2.5294 27.9685V28.2181C2.5294 28.2836 2.50361 28.3163 2.45203 28.3163H0.400692V30.3003H2.41334C2.42471 30.2984 2.4363 30.2996 2.4472 30.3039C2.45809 30.3082 2.46799 30.3153 2.47611 30.3248C2.48424 30.3343 2.49036 30.3459 2.49401 30.3586C2.49765 30.3714 2.49872 30.3849 2.49712 30.3982V30.6244C2.49712 30.6847 2.46919 30.7149 2.41334 30.7149L0.400692 30.714Z" fill="#F5F3EA"/>
<path d="M5.49674 32.6298C5.54405 32.5996 5.58061 32.6172 5.6064 32.6825L5.67097 32.8788C5.68404 32.924 5.6667 32.9593 5.61948 32.9842C5.30251 33.1748 4.95016 33.2707 4.59381 33.2634C4.37299 33.2783 4.15201 33.2379 3.94564 33.1448C3.73926 33.0518 3.55225 32.9084 3.39711 32.724C3.09535 32.3135 2.94155 31.7822 2.96806 31.2418C2.939 30.7032 3.07893 30.1708 3.36162 29.7442C3.4978 29.566 3.66646 29.4259 3.85515 29.3341C4.04385 29.2423 4.24777 29.2012 4.45186 29.2139C4.64711 29.2003 4.84247 29.2383 5.02341 29.3252C5.20435 29.412 5.36623 29.5455 5.497 29.7155C5.75355 30.0896 5.88431 30.5604 5.86468 31.0393V31.3485C5.86468 31.4087 5.838 31.4389 5.7809 31.4389H3.34241C3.34181 31.8305 3.47002 32.2073 3.70049 32.4913C3.82223 32.6249 3.96591 32.7282 4.12281 32.795C4.27971 32.8617 4.44658 32.8906 4.61329 32.8797C4.92119 32.886 5.22533 32.7999 5.49674 32.6298ZM3.34214 31.0699H5.49674V31.0093C5.51266 30.642 5.41922 30.2794 5.23231 29.9835C5.1369 29.8526 5.01659 29.7496 4.88102 29.6828C4.74544 29.616 4.59838 29.5873 4.45159 29.5989C3.74629 29.598 3.37647 30.0879 3.34214 31.0686V31.0699Z" fill="#F5F3EA"/>
<path d="M7.03818 29.3032C7.04869 29.3014 7.05942 29.3025 7.0695 29.3064C7.07958 29.3103 7.08874 29.317 7.09625 29.3257C7.10376 29.3345 7.10942 29.3452 7.11277 29.357C7.11612 29.3688 7.11708 29.3814 7.11556 29.3937V30.2235C7.19834 29.9745 7.33506 29.7548 7.51232 29.5861C7.71416 29.3848 7.9729 29.2786 8.23808 29.2882C8.28113 29.2882 8.30265 29.3109 8.30265 29.3562V29.6807C8.30403 29.692 8.30316 29.7034 8.30008 29.7143C8.297 29.7251 8.29181 29.7349 8.28492 29.7429C8.27804 29.751 8.26964 29.7571 8.26039 29.7607C8.25115 29.7643 8.24132 29.7653 8.23168 29.7637C8.22741 29.7637 8.2122 29.7612 8.18658 29.7562C8.16101 29.7512 8.13513 29.7487 8.10921 29.7487C7.97084 29.7529 7.83537 29.7959 7.71415 29.874C7.59293 29.9522 7.4895 30.0631 7.41253 30.1976C7.21851 30.4841 7.11385 30.8393 7.11582 31.2047V33.0829C7.11734 33.0952 7.11639 33.1077 7.11304 33.1195C7.10969 33.1313 7.10403 33.142 7.09652 33.1508C7.08901 33.1596 7.07985 33.1662 7.06977 33.1701C7.05969 33.174 7.04896 33.1751 7.03845 33.1734H6.81912C6.76326 33.1734 6.73533 33.1432 6.73533 33.0829V29.4015C6.73369 29.3881 6.73472 29.3745 6.73834 29.3618C6.74197 29.349 6.74809 29.3374 6.75622 29.3278C6.76435 29.3183 6.77426 29.3111 6.78518 29.3068C6.79609 29.3025 6.80771 29.3013 6.81912 29.3032H7.03818Z" fill="#F5F3EA"/>
<path d="M11.7924 33.0825C11.7939 33.0948 11.793 33.1074 11.7896 33.1191C11.7863 33.1309 11.7806 33.1416 11.7731 33.1504C11.7656 33.1592 11.7564 33.1658 11.7464 33.1698C11.7363 33.1737 11.7256 33.1748 11.715 33.173H11.4957C11.4852 33.1747 11.4745 33.1735 11.4645 33.1696C11.4544 33.1657 11.4453 33.1591 11.4378 33.1503C11.4303 33.1415 11.4246 33.1308 11.4212 33.1191C11.4179 33.1073 11.4169 33.0948 11.4183 33.0825V30.6462C11.4183 29.9673 11.1238 29.6279 10.5346 29.6279C10.2431 29.6128 9.95823 29.732 9.74109 29.9599C9.64098 30.0696 9.56213 30.2031 9.50985 30.3514C9.45756 30.4997 9.43306 30.6594 9.43798 30.8197V33.0825C9.43944 33.0948 9.43845 33.1073 9.43508 33.1191C9.43171 33.1308 9.42605 33.1415 9.41855 33.1503C9.41105 33.1591 9.40191 33.1657 9.39186 33.1696C9.3818 33.1735 9.37111 33.1747 9.3606 33.173H9.13487C9.08755 33.173 9.0639 33.1428 9.0639 33.0825V29.4011C9.0639 29.3356 9.08755 29.3028 9.13487 29.3028H9.3542C9.3647 29.3011 9.3754 29.3023 9.38546 29.3062C9.39551 29.3101 9.40465 29.3168 9.41215 29.3255C9.41965 29.3343 9.42531 29.345 9.42868 29.3567C9.43205 29.3685 9.43304 29.381 9.43158 29.3933L9.43798 29.9817C9.64432 29.4688 10.0378 29.2123 10.6184 29.2123C10.7784 29.1986 10.939 29.2241 11.0901 29.2871C11.2411 29.3501 11.3793 29.4493 11.4957 29.5783C11.7046 29.8579 11.8112 30.2223 11.7924 30.5929V33.0825Z" fill="#F5F3EA"/>
<path d="M15.3145 33.0825C15.316 33.0947 15.315 33.1073 15.3116 33.119C15.3082 33.1308 15.3026 33.1415 15.2951 33.1502C15.2876 33.159 15.2784 33.1656 15.2684 33.1695C15.2583 33.1735 15.2476 33.1747 15.2371 33.1729H15.0306C14.9833 33.1729 14.9596 33.1428 14.9596 33.0825V32.4563C14.7403 32.9794 14.3145 33.241 13.6823 33.241C13.3877 33.2628 13.0963 33.1582 12.8629 32.9468C12.7669 32.8486 12.6909 32.7265 12.6407 32.5895C12.5904 32.4524 12.5672 32.3039 12.5726 32.1549C12.5698 31.9956 12.5962 31.8374 12.65 31.691C12.7026 31.5563 12.7851 31.4404 12.8888 31.3553C12.9975 31.264 13.1157 31.1893 13.2405 31.1329C13.397 31.0663 13.5592 31.0196 13.7242 30.9934C13.9199 30.9583 14.1092 30.9331 14.292 30.9179C14.4749 30.9027 14.6931 30.8923 14.9468 30.8867V30.5925C14.9572 30.4579 14.9439 30.3222 14.9079 30.1937C14.8718 30.0653 14.8137 29.9469 14.7371 29.8456C14.5373 29.6674 14.2873 29.584 14.0372 29.6119C13.6734 29.6136 13.3136 29.7008 12.9793 29.8684C12.9277 29.8936 12.8955 29.876 12.8827 29.8157L12.8245 29.5973C12.8117 29.552 12.8266 29.5168 12.8696 29.4915C13.2466 29.3028 13.653 29.2078 14.0631 29.2126C14.407 29.1763 14.7494 29.298 15.0178 29.552C15.124 29.6906 15.2051 29.853 15.2561 30.0294C15.3071 30.2057 15.327 30.3923 15.3145 30.5778V33.0825ZM14.9468 31.2417C14.7145 31.2519 14.5339 31.2608 14.4049 31.2683C14.2759 31.2758 14.1211 31.2908 13.9403 31.3135C13.7981 31.3269 13.6574 31.3583 13.5209 31.4071C13.4177 31.45 13.3174 31.5022 13.221 31.5631C13.13 31.6146 13.0546 31.6975 13.0049 31.8005C12.9599 31.9058 12.9377 32.0223 12.9403 32.14C12.9378 32.2402 12.9548 32.3397 12.99 32.4312C13.0251 32.5226 13.0776 32.6035 13.1433 32.6678C13.3151 32.8171 13.5268 32.8893 13.7402 32.8716C14.0632 32.8954 14.3817 32.774 14.6306 32.5321C14.7329 32.4253 14.8142 32.2937 14.8688 32.1466C14.9234 31.9994 14.95 31.8401 14.9468 31.6798V31.2417Z" fill="#F5F3EA"/>
<path d="M19.0684 33.0825C19.0699 33.0948 19.069 33.1074 19.0656 33.1191C19.0623 33.1309 19.0566 33.1416 19.0491 33.1504C19.0416 33.1592 19.0324 33.1658 19.0224 33.1698C19.0123 33.1737 19.0016 33.1748 18.991 33.173H18.7717C18.7612 33.1747 18.7505 33.1735 18.7405 33.1696C18.7304 33.1657 18.7213 33.1591 18.7138 33.1503C18.7063 33.1415 18.7006 33.1308 18.6972 33.1191C18.6939 33.1073 18.6929 33.0948 18.6943 33.0825V30.6462C18.6943 29.9673 18.3998 29.6279 17.8106 29.6279C17.5191 29.6128 17.2342 29.732 17.0171 29.9599C16.917 30.0696 16.8381 30.2031 16.7858 30.3514C16.7336 30.4997 16.709 30.6594 16.714 30.8197V33.0825C16.7154 33.0948 16.7144 33.1073 16.7111 33.1191C16.7077 33.1308 16.702 33.1415 16.6945 33.1503C16.687 33.1591 16.6779 33.1657 16.6678 33.1696C16.6578 33.1735 16.6471 33.1747 16.6366 33.173H16.4109C16.3635 33.173 16.3399 33.1428 16.3399 33.0825V29.4011C16.3399 29.3356 16.3635 29.3028 16.4109 29.3028H16.6302C16.6407 29.3011 16.6514 29.3023 16.6614 29.3062C16.6715 29.3101 16.6806 29.3168 16.6881 29.3255C16.6956 29.3343 16.7013 29.345 16.7047 29.3567C16.708 29.3685 16.709 29.381 16.7076 29.3933L16.714 29.9817C16.9205 29.4688 17.314 29.2123 17.8944 29.2123C18.0544 29.1986 18.215 29.2241 18.3661 29.2871C18.5171 29.3501 18.6553 29.4493 18.7717 29.5783C18.9806 29.8579 19.0872 30.2223 19.0684 30.5929V33.0825Z" fill="#F5F3EA"/>
<path d="M22.6033 32.4115C22.4055 32.9695 21.9948 33.2485 21.3711 33.2485C21.1715 33.261 20.9721 33.2211 20.7874 33.1317C20.6027 33.0423 20.4375 32.9057 20.3038 32.7319C20.0534 32.2867 19.9199 31.7655 19.9199 31.2326C19.9199 30.6998 20.0534 30.1786 20.3038 29.7334C20.4369 29.5586 20.602 29.421 20.7867 29.331C20.9715 29.2409 21.1712 29.2006 21.3711 29.213C21.6374 29.2052 21.9005 29.2821 22.1323 29.4354C22.3433 29.5784 22.507 29.8003 22.5969 30.0653V27.9685C22.5969 27.9132 22.6227 27.8855 22.6743 27.8855H22.8936C22.9494 27.8855 22.9775 27.9132 22.9776 27.9685V33.0829C22.9776 33.1432 22.9496 33.1734 22.8936 33.1734H22.6743C22.627 33.1734 22.6033 33.1432 22.6033 33.0829V32.4115ZM22.297 30.0279C22.1901 29.8859 22.057 29.7742 21.9078 29.7012C21.7586 29.6282 21.5972 29.5958 21.4357 29.6064C20.6831 29.6064 20.3068 30.1496 20.3068 31.2359C20.3068 32.3175 20.6831 32.8583 21.4357 32.8583C21.5969 32.8688 21.7582 32.8367 21.9073 32.7642C22.0565 32.6917 22.1897 32.5807 22.297 32.4396C22.4969 32.0811 22.6034 31.6625 22.6034 31.2345C22.6034 30.8066 22.4969 30.3879 22.297 30.0295V30.0279Z" fill="#F5F3EA"/>
<path d="M26.5512 33.0826C26.5527 33.0949 26.5518 33.1074 26.5484 33.1192C26.5451 33.131 26.5394 33.1417 26.5319 33.1505C26.5244 33.1593 26.5152 33.1659 26.5051 33.1698C26.4951 33.1738 26.4843 33.1749 26.4738 33.1731H26.2673C26.22 33.1731 26.1963 33.1429 26.1963 33.0826V32.4565C25.977 32.9796 25.5512 33.2411 24.919 33.2411C24.6242 33.2637 24.3324 33.1596 24.0986 32.9485C24.0025 32.8504 23.9266 32.7283 23.8763 32.5912C23.8261 32.4541 23.8028 32.3056 23.8083 32.1566C23.8054 31.9973 23.8318 31.8391 23.8856 31.6927C23.9382 31.558 24.0205 31.4421 24.1242 31.357C24.2329 31.2657 24.351 31.191 24.4759 31.1346C24.6324 31.068 24.7946 31.0213 24.9596 30.9951C25.1553 30.96 25.3445 30.9348 25.5274 30.9196C25.7103 30.9044 25.9285 30.894 26.1822 30.8884V30.5942C26.1925 30.4596 26.1793 30.3239 26.1432 30.1955C26.1072 30.067 26.0491 29.9486 25.9725 29.8473C25.7727 29.6691 25.5227 29.5857 25.2726 29.6136C24.9088 29.6153 24.549 29.7025 24.2146 29.8701C24.163 29.8953 24.1308 29.8777 24.1178 29.8174L24.0596 29.599C24.0468 29.5537 24.0617 29.5185 24.105 29.4932C24.482 29.3045 24.8884 29.2095 25.2985 29.2143C25.6423 29.178 25.9848 29.2997 26.2532 29.5537C26.3594 29.6923 26.4405 29.8547 26.4915 30.0311C26.5425 30.2074 26.5624 30.394 26.5499 30.5795L26.5512 33.0826ZM26.1835 31.2419C25.9512 31.2521 25.7706 31.2609 25.6416 31.2684C25.5126 31.2759 25.3578 31.291 25.1771 31.3136C25.0348 31.327 24.8941 31.3584 24.7576 31.4072C24.6544 31.4502 24.5541 31.5023 24.4577 31.5632C24.3667 31.6148 24.2913 31.6977 24.2416 31.8007C24.1966 31.9059 24.1744 32.0225 24.177 32.1401C24.1745 32.2403 24.1915 32.3399 24.2268 32.4314C24.262 32.5228 24.3145 32.6037 24.3803 32.668C24.552 32.8172 24.7636 32.8894 24.9769 32.8717C25.2999 32.8955 25.6184 32.7741 25.8673 32.5323C25.9697 32.4254 26.0509 32.2939 26.1055 32.1467C26.1601 31.9996 26.1867 31.8403 26.1835 31.6799V31.2419Z" fill="#F5F3EA"/>
<path d="M40.6675 32.8416C40.6721 32.7797 40.6898 32.7202 40.719 32.6682L43.1446 28.3235H40.7966C40.7451 28.3235 40.7192 28.2923 40.7192 28.2252V27.9756C40.7177 27.9633 40.7187 27.9507 40.722 27.9389C40.7254 27.9271 40.731 27.9164 40.7385 27.9076C40.746 27.8988 40.7552 27.8922 40.7653 27.8882C40.7753 27.8842 40.7861 27.8831 40.7966 27.8848H43.5182C43.5287 27.8831 43.5395 27.8842 43.5495 27.8882C43.5596 27.8922 43.5688 27.8988 43.5763 27.9076C43.5838 27.9164 43.5894 27.9271 43.5928 27.9389C43.5961 27.9507 43.5971 27.9633 43.5956 27.9756V28.2168C43.5945 28.2761 43.5789 28.3338 43.5505 28.383L41.1376 32.7353H43.5505C43.6063 32.7353 43.6343 32.7655 43.6343 32.826V33.0756C43.6359 33.089 43.6349 33.1026 43.6313 33.1153C43.6276 33.1281 43.6215 33.1397 43.6134 33.1493C43.6053 33.1588 43.5953 33.166 43.5844 33.1703C43.5735 33.1745 43.5619 33.1758 43.5505 33.1739H40.7448C40.6931 33.1739 40.6675 33.1427 40.6675 33.0756V32.8416Z" fill="#F5F3EA"/>
<path d="M46.8471 32.6302C46.8944 32.6001 46.931 32.6176 46.9568 32.6829L47.0213 32.8792C47.0343 32.9245 47.0171 32.9598 46.9698 32.9849C46.6528 33.1753 46.3005 33.2711 45.9441 33.2639C45.7234 33.2787 45.5024 33.2383 45.296 33.1454C45.0897 33.0524 44.9026 32.909 44.7475 32.7247C44.4457 32.3143 44.2919 31.7829 44.3184 31.2425C44.2894 30.704 44.4293 30.1715 44.712 29.745C44.8482 29.5668 45.0168 29.4267 45.2055 29.3349C45.3942 29.2431 45.5981 29.202 45.8022 29.2146C45.9975 29.201 46.1928 29.2391 46.3737 29.3259C46.5547 29.4128 46.7166 29.5462 46.8473 29.7163C47.104 30.0904 47.2347 30.5613 47.215 31.0403V31.3495C47.215 31.41 47.1871 31.4403 47.1313 31.4403H44.6925C44.692 31.8318 44.8202 32.2085 45.0506 32.4926C45.1723 32.6262 45.316 32.7295 45.4729 32.7963C45.6298 32.8631 45.7967 32.8919 45.9634 32.8811C46.2714 32.8871 46.5757 32.8008 46.8471 32.6302ZM44.6922 31.0703H46.8471V31.0098C46.863 30.6424 46.7696 30.2799 46.5827 29.9839C46.4872 29.853 46.3669 29.75 46.2314 29.6832C46.0958 29.6164 45.9487 29.5877 45.8019 29.5993C45.0968 29.5982 44.727 30.088 44.6925 31.0687L44.6922 31.0703Z" fill="#F5F3EA"/>
<path d="M48.3885 29.3039C48.399 29.3022 48.4097 29.3033 48.4198 29.3073C48.4298 29.3112 48.439 29.3178 48.4465 29.3266C48.454 29.3354 48.4596 29.3461 48.463 29.3578C48.4664 29.3696 48.4674 29.3821 48.4659 29.3944V30.2243C48.5486 29.9751 48.6854 29.7555 48.8627 29.5869C49.0646 29.3857 49.3233 29.2795 49.5884 29.2889C49.6314 29.2889 49.653 29.3117 49.653 29.3569V29.6814C49.6543 29.6926 49.6534 29.7041 49.6503 29.7149C49.6472 29.7256 49.642 29.7354 49.6351 29.7434C49.6283 29.7514 49.6199 29.7575 49.6107 29.7611C49.6015 29.7647 49.5916 29.7657 49.582 29.7641C49.5778 29.7641 49.5625 29.7616 49.5369 29.7566C49.5113 29.7517 49.4855 29.7492 49.4596 29.7491C49.3212 29.7533 49.1857 29.7963 49.0645 29.8744C48.9433 29.9525 48.8398 30.0635 48.7629 30.198C48.5688 30.4845 48.4641 30.8397 48.4662 31.2051V33.0833C48.4677 33.0956 48.4667 33.1081 48.4634 33.1199C48.46 33.1317 48.4544 33.1425 48.4469 33.1513C48.4394 33.1601 48.4302 33.1667 48.4201 33.1707C48.41 33.1746 48.3993 33.1758 48.3888 33.1741H48.1695C48.1136 33.1741 48.0857 33.1438 48.0857 33.0833V29.4019C48.0841 29.3885 48.0851 29.375 48.0888 29.3623C48.0924 29.3495 48.0986 29.338 48.1067 29.3285C48.1148 29.319 48.1247 29.3118 48.1356 29.3075C48.1465 29.3033 48.1581 29.302 48.1695 29.3039H48.3885Z" fill="#F5F3EA"/>
<path d="M50.8203 33.0826C50.8203 33.1431 50.7967 33.1734 50.7494 33.1734H50.53C50.4742 33.1734 50.4463 33.1431 50.4463 33.0826V27.9685C50.4463 27.9133 50.4729 27.8855 50.53 27.8855H50.7494C50.8011 27.8855 50.8267 27.9133 50.8267 27.9685V30.0653C50.9166 29.8003 51.0803 29.5784 51.2913 29.4354C51.5231 29.282 51.7862 29.205 52.0525 29.2127C52.2524 29.2003 52.4522 29.2406 52.6369 29.3308C52.8217 29.4209 52.9867 29.5585 53.1198 29.7334C53.3702 30.1786 53.5036 30.6998 53.5036 31.2326C53.5036 31.7655 53.3702 32.2867 53.1198 32.7319C52.9861 32.9056 52.8209 33.0421 52.6362 33.1314C52.4515 33.2208 52.2521 33.2607 52.0525 33.2482C51.4246 33.2482 51.0139 32.9692 50.8203 32.4112V33.0826ZM51.1269 32.4418C51.2342 32.5826 51.3675 32.6931 51.5166 32.765C51.6658 32.8368 51.8269 32.8681 51.988 32.8564C52.7407 32.8564 53.1171 32.3156 53.1169 31.2341C53.1169 30.1477 52.7406 29.6045 51.988 29.6045C51.8266 29.593 51.6651 29.6248 51.5159 29.6974C51.3667 29.77 51.2336 29.8816 51.1269 30.0235C50.9309 30.3851 50.8268 30.8043 50.8268 31.2323C50.8268 31.6604 50.9309 32.0796 51.1269 32.4411V32.4418Z" fill="#F5F3EA"/>
<path d="M54.7747 28.6632C54.7762 28.6755 54.7752 28.688 54.7719 28.6998C54.7685 28.7116 54.7629 28.7223 54.7554 28.7311C54.7478 28.7399 54.7387 28.7465 54.7286 28.7504C54.7185 28.7543 54.7078 28.7554 54.6973 28.7537H54.4716C54.4242 28.7537 54.4006 28.7235 54.4006 28.6632V28.037C54.4006 27.9769 54.4242 27.9469 54.4716 27.9469H54.6973C54.7078 27.9451 54.7185 27.9462 54.7285 27.9501C54.7386 27.954 54.7477 27.9606 54.7552 27.9693C54.7627 27.9781 54.7684 27.9888 54.7718 28.0005C54.7751 28.0122 54.7761 28.0248 54.7747 28.037V28.6632ZM54.7747 33.0834C54.7762 33.0957 54.7752 33.1083 54.7719 33.1201C54.7685 33.1319 54.7628 33.1426 54.7553 33.1514C54.7478 33.1602 54.7387 33.1668 54.7286 33.1708C54.7185 33.1748 54.7078 33.1759 54.6973 33.1742H54.4716C54.4242 33.1742 54.4006 33.1439 54.4006 33.0834V29.402C54.4006 29.3367 54.4242 29.304 54.4716 29.304H54.6973C54.7489 29.304 54.7747 29.3367 54.7747 29.402V33.0834Z" fill="#F5F3EA"/>
<path d="M58.5742 33.0829C58.5757 33.0952 58.5748 33.1078 58.5714 33.1196C58.5681 33.1314 58.5624 33.1421 58.5549 33.1509C58.5474 33.1597 58.5382 33.1663 58.5282 33.1703C58.5181 33.1742 58.5074 33.1754 58.4968 33.1737H58.2775C58.267 33.1754 58.2563 33.1742 58.2462 33.1703C58.2361 33.1663 58.2269 33.1597 58.2194 33.1509C58.2119 33.1421 58.2063 33.1314 58.2029 33.1196C58.1996 33.1078 58.1986 33.0952 58.2001 33.0829V30.6466C58.2001 29.9677 57.9055 29.6283 57.3164 29.6283C57.0249 29.6132 56.74 29.7324 56.5229 29.9602C56.4228 30.07 56.3439 30.2036 56.2916 30.3519C56.2393 30.5003 56.2147 30.66 56.2195 30.8204V33.0832C56.2211 33.0955 56.2201 33.1081 56.2168 33.1199C56.2135 33.1318 56.2078 33.1425 56.2003 33.1513C56.1928 33.1602 56.1836 33.1668 56.1735 33.1707C56.1634 33.1747 56.1527 33.1758 56.1421 33.174H55.9164C55.8691 33.174 55.8454 33.1437 55.8454 33.0832V29.4018C55.8454 29.3365 55.8691 29.3038 55.9164 29.3038H56.1357C56.1462 29.302 56.1569 29.3031 56.167 29.3071C56.1771 29.311 56.1863 29.3176 56.1938 29.3264C56.2013 29.3352 56.207 29.3459 56.2103 29.3577C56.2137 29.3695 56.2146 29.382 56.2131 29.3943L56.2195 29.9827C56.426 29.4698 56.8196 29.2133 57.4002 29.2133C57.5602 29.1996 57.7208 29.2251 57.8719 29.2881C58.0229 29.3511 58.1611 29.4503 58.2775 29.5793C58.4865 29.8587 58.5931 30.223 58.5745 30.5936L58.5742 33.0829Z" fill="#F5F3EA"/>
<path d="M59.9993 28.6632C60.0008 28.6755 59.9998 28.688 59.9964 28.6997C59.993 28.7115 59.9874 28.7222 59.9799 28.7309C59.9724 28.7397 59.9632 28.7463 59.9532 28.7503C59.9431 28.7542 59.9324 28.7554 59.9219 28.7537H59.6951C59.6478 28.7537 59.6242 28.7235 59.6242 28.6632V28.037C59.6242 27.9769 59.6478 27.9469 59.6951 27.9469H59.9209C59.9313 27.9451 59.9421 27.9462 59.9521 27.9501C59.9622 27.954 59.9713 27.9606 59.9788 27.9693C59.9863 27.9781 59.992 27.9888 59.9954 28.0005C59.9987 28.0122 59.9997 28.0248 59.9982 28.037L59.9993 28.6632ZM59.9993 33.0834C60.0008 33.0957 59.9999 33.1083 59.9965 33.1201C59.9932 33.1319 59.9875 33.1426 59.98 33.1514C59.9725 33.1602 59.9633 33.1668 59.9533 33.1708C59.9432 33.1748 59.9325 33.1759 59.9219 33.1742H59.6951C59.6478 33.1742 59.6242 33.1439 59.6242 33.0834V29.402C59.6242 29.3367 59.6478 29.304 59.6951 29.304H59.9209C59.9724 29.304 59.9982 29.3367 59.9982 29.402L59.9993 33.0834Z" fill="#F5F3EA"/>
</svg>
